<?xml version="1.0" standalone="no"?>
<!DOCTYPE svg PUBLIC "-//W3C//DTD SVG 20010904//EN"
 "http://www.w3.org/TR/2001/REC-SVG-20010904/DTD/svg10.dtd">
<svg version="1.0" xmlns="http://www.w3.org/2000/svg"
 width="640.000000pt" height="640.000000pt" viewBox="0 0 640.000000 640.000000"
 preserveAspectRatio="xMidYMid meet">

<g transform="translate(0.000000,640.000000) scale(0.100000,-0.100000)"
fill="#000000" stroke="none">
<path d="M3370 5262 c-249 -140 -400 -281 -565 -528 -140 -211 -195 -333 -254
-573 -86 -344 -155 -859 -191 -1420 l-9 -154 85 -90 c46 -49 94 -102 106 -118
l22 -29 716 0 716 0 72 68 c40 37 72 72 72 77 0 6 -42 75 -94 155 -386 594
-613 969 -652 1078 -29 79 -38 172 -18 192 8 8 -7 29 -51 73 -34 34 -73 87
-88 117 -25 52 -71 209 -63 217 2 2 28 -40 59 -94 102 -181 141 -209 365 -267
70 -18 144 -41 166 -50 58 -24 154 -84 224 -139 35 -27 64 -48 65 -46 2 2 8
17 15 32 12 28 37 42 145 81 90 33 127 83 142 193 13 100 6 115 -137 278 -188
216 -330 396 -367 465 -48 89 -106 124 -298 180 -51 14 -94 28 -97 31 -4 4 5
119 19 262 5 43 3 57 -7 57 -7 0 -51 -22 -98 -48z"/>
<path d="M2820 4927 c-91 -31 -213 -102 -281 -165 -146 -134 -269 -517 -374
-1164 -48 -301 -107 -773 -117 -943 -3 -58 -14 -56 127 -25 l101 22 23 162
c13 88 32 247 42 351 59 600 148 1058 250 1299 38 89 141 260 230 381 39 53
70 98 67 100 -2 2 -33 -6 -68 -18z"/>
<path d="M2476 2216 l-40 -34 27 -31 c30 -37 47 -88 47 -149 l0 -42 758 2 757
3 6 71 c5 70 35 134 62 134 6 0 -7 18 -28 40 l-39 40 -756 0 -755 -1 -39 -33z"/>
<path d="M2518 1823 c-112 -117 -114 -217 -6 -343 l43 -50 706 0 706 0 42 50
c107 127 105 233 -6 345 l-46 45 -696 0 -697 0 -46 -47z"/>
<path d="M2310 1195 l0 -115 940 0 940 0 0 115 0 115 -940 0 -940 0 0 -115z"/>
</g>
</svg>
